# xmcd
#
# Track frame offsets: 
#        150
#        28642
#        54323
#        77447
#        100537
#        118366
#        140134
#        166990
#        187938
#        211411
#        225287
#        247702
#
# Disc length: 3481 seconds
#
# Revision: 0
# Processed by: cddbd v1.5.2PL0 Copyright (c) Steve Scherf et al.
# Submitted via: ExactAudioCopyFreeDBPlugin 1.0
#
DISCID=8e0d970c
DTITLE=Toronzo Cannon - John The Conquer Root
DYEAR=2013
DGENRE=Blues
TTITLE0=John The Conquer Root
TTITLE1=I've Been Doing Fine
TTITLE2=Cold World
TTITLE3=Gentle Reminder
TTITLE4=If You're Woman Enough To Leave Me
TTITLE5=Shame
TTITLE6=You Made Me This Way
TTITLE7=Been Better To You
TTITLE8=Big Ray Bop
TTITLE9=Let It Shine Always
TTITLE10=Sweet, Sweet, Sweet
TTITLE11=Root To The Fruit...She's Mine (Reprise)
EXTD=
EXTT0=
EXTT1=
EXTT2=
EXTT3=
EXTT4=
EXTT5=
EXTT6=
EXTT7=
EXTT8=
EXTT9=
EXTT10=
EXTT11=
PLAYORDER=
